<mxfile host="app.diagrams.net" agent="Mozilla/5.0 (Windows NT 10.0; Win64; x64) AppleWebKit/537.36 (KHTML, like Gecko) Chrome/141.0.0.0 Safari/537.36 Edg/141.0.0.0" version="28.2.8">
  <diagram name="Page-1" id="HliccELpnxDyKDuUcWF6">
    <mxGraphModel dx="1034" dy="1678" grid="1" gridSize="10" guides="1" tooltips="1" connect="1" arrows="1" fold="1" page="1" pageScale="1" pageWidth="850" pageHeight="1100" math="0" shadow="0">
      <root>
        <mxCell id="0" />
        <mxCell id="1" parent="0" />
        <mxCell id="1C-hHUwmpPzY9lgkWQ61-14" style="edgeStyle=orthogonalEdgeStyle;rounded=0;orthogonalLoop=1;jettySize=auto;html=1;entryX=0.5;entryY=0;entryDx=0;entryDy=0;shape=flexArrow;" edge="1" parent="1" source="1C-hHUwmpPzY9lgkWQ61-1" target="1C-hHUwmpPzY9lgkWQ61-8">
          <mxGeometry relative="1" as="geometry" />
        </mxCell>
        <mxCell id="1C-hHUwmpPzY9lgkWQ61-1" value="HOME" style="rounded=0;whiteSpace=wrap;html=1;fillColor=#d5e8d4;strokeColor=#82b366;" vertex="1" parent="1">
          <mxGeometry x="80" y="-1030" width="120" height="60" as="geometry" />
        </mxCell>
        <mxCell id="1C-hHUwmpPzY9lgkWQ61-7" value="PÁGINA DE LOGUIM" style="rounded=0;whiteSpace=wrap;html=1;fillColor=#d5e8d4;strokeColor=#82b366;" vertex="1" parent="1">
          <mxGeometry x="320" y="-1030" width="120" height="60" as="geometry" />
        </mxCell>
        <mxCell id="1C-hHUwmpPzY9lgkWQ61-15" style="edgeStyle=orthogonalEdgeStyle;rounded=0;orthogonalLoop=1;jettySize=auto;html=1;shape=flexArrow;" edge="1" parent="1" source="1C-hHUwmpPzY9lgkWQ61-8" target="1C-hHUwmpPzY9lgkWQ61-9">
          <mxGeometry relative="1" as="geometry" />
        </mxCell>
        <mxCell id="1C-hHUwmpPzY9lgkWQ61-18" style="edgeStyle=orthogonalEdgeStyle;rounded=0;orthogonalLoop=1;jettySize=auto;html=1;" edge="1" parent="1" source="1C-hHUwmpPzY9lgkWQ61-8">
          <mxGeometry relative="1" as="geometry">
            <mxPoint x="60" y="-860" as="targetPoint" />
          </mxGeometry>
        </mxCell>
        <mxCell id="1C-hHUwmpPzY9lgkWQ61-8" value="DETALHES DO LIVRO" style="rounded=0;whiteSpace=wrap;html=1;fillColor=#d5e8d4;strokeColor=#82b366;" vertex="1" parent="1">
          <mxGeometry x="80" y="-890" width="120" height="60" as="geometry" />
        </mxCell>
        <mxCell id="1C-hHUwmpPzY9lgkWQ61-16" style="edgeStyle=orthogonalEdgeStyle;rounded=0;orthogonalLoop=1;jettySize=auto;html=1;entryX=0;entryY=0.5;entryDx=0;entryDy=0;exitX=0;exitY=0.5;exitDx=0;exitDy=0;" edge="1" parent="1" source="1C-hHUwmpPzY9lgkWQ61-9" target="1C-hHUwmpPzY9lgkWQ61-1">
          <mxGeometry relative="1" as="geometry">
            <mxPoint x="40" y="-1000" as="targetPoint" />
          </mxGeometry>
        </mxCell>
        <mxCell id="1C-hHUwmpPzY9lgkWQ61-19" style="edgeStyle=orthogonalEdgeStyle;rounded=0;orthogonalLoop=1;jettySize=auto;html=1;shape=flexArrow;" edge="1" parent="1" source="1C-hHUwmpPzY9lgkWQ61-9" target="1C-hHUwmpPzY9lgkWQ61-11">
          <mxGeometry relative="1" as="geometry" />
        </mxCell>
        <mxCell id="1C-hHUwmpPzY9lgkWQ61-9" value="CARRINHO DE COMPRAS" style="rounded=0;whiteSpace=wrap;html=1;fillColor=#d5e8d4;strokeColor=#82b366;" vertex="1" parent="1">
          <mxGeometry x="80" y="-750" width="120" height="60" as="geometry" />
        </mxCell>
        <mxCell id="1C-hHUwmpPzY9lgkWQ61-21" style="edgeStyle=orthogonalEdgeStyle;rounded=0;orthogonalLoop=1;jettySize=auto;html=1;exitX=0.5;exitY=0;exitDx=0;exitDy=0;" edge="1" parent="1" source="1C-hHUwmpPzY9lgkWQ61-10" target="1C-hHUwmpPzY9lgkWQ61-1">
          <mxGeometry relative="1" as="geometry">
            <mxPoint x="140" y="-1070" as="targetPoint" />
            <mxPoint x="679.5" y="-770" as="sourcePoint" />
            <Array as="points">
              <mxPoint x="680" y="-1060" />
              <mxPoint x="140" y="-1060" />
            </Array>
          </mxGeometry>
        </mxCell>
        <mxCell id="1C-hHUwmpPzY9lgkWQ61-10" value="ACOMPANHEMENTO DE PEDIDOS" style="rounded=0;whiteSpace=wrap;html=1;fillColor=#f8cecc;strokeColor=#b85450;" vertex="1" parent="1">
          <mxGeometry x="620" y="-750" width="120" height="60" as="geometry" />
        </mxCell>
        <mxCell id="1C-hHUwmpPzY9lgkWQ61-20" style="edgeStyle=orthogonalEdgeStyle;rounded=0;orthogonalLoop=1;jettySize=auto;html=1;entryX=0;entryY=0.5;entryDx=0;entryDy=0;shape=flexArrow;" edge="1" parent="1" source="1C-hHUwmpPzY9lgkWQ61-11" target="1C-hHUwmpPzY9lgkWQ61-10">
          <mxGeometry relative="1" as="geometry" />
        </mxCell>
        <mxCell id="1C-hHUwmpPzY9lgkWQ61-11" value="PAGAMENTO E ENTREGA" style="rounded=0;whiteSpace=wrap;html=1;fillColor=#f8cecc;strokeColor=#b85450;" vertex="1" parent="1">
          <mxGeometry x="350" y="-750" width="120" height="60" as="geometry" />
        </mxCell>
        <mxCell id="1C-hHUwmpPzY9lgkWQ61-23" value="" style="shape=flexArrow;endArrow=classic;html=1;rounded=0;" edge="1" parent="1">
          <mxGeometry width="50" height="50" relative="1" as="geometry">
            <mxPoint x="425" y="-620.4200000000001" as="sourcePoint" />
            <mxPoint x="495" y="-620.4200000000001" as="targetPoint" />
          </mxGeometry>
        </mxCell>
        <mxCell id="1C-hHUwmpPzY9lgkWQ61-24" value="" style="endArrow=classic;html=1;rounded=0;" edge="1" parent="1">
          <mxGeometry width="50" height="50" relative="1" as="geometry">
            <mxPoint x="560" y="-620.42" as="sourcePoint" />
            <mxPoint x="630" y="-620.42" as="targetPoint" />
          </mxGeometry>
        </mxCell>
        <mxCell id="1C-hHUwmpPzY9lgkWQ61-25" value="FLUXO DESEJÁVEL" style="text;html=1;whiteSpace=wrap;strokeColor=none;fillColor=none;align=center;verticalAlign=middle;rounded=0;" vertex="1" parent="1">
          <mxGeometry x="420" y="-590" width="90" height="40" as="geometry" />
        </mxCell>
        <mxCell id="1C-hHUwmpPzY9lgkWQ61-26" value="FLUXO POSSIVEL" style="text;html=1;whiteSpace=wrap;strokeColor=none;fillColor=none;align=center;verticalAlign=middle;rounded=0;" vertex="1" parent="1">
          <mxGeometry x="560" y="-590" width="90" height="40" as="geometry" />
        </mxCell>
        <mxCell id="1C-hHUwmpPzY9lgkWQ61-27" value="" style="shape=flexArrow;endArrow=classic;html=1;rounded=0;entryX=1;entryY=0.5;entryDx=0;entryDy=0;exitX=0;exitY=0.5;exitDx=0;exitDy=0;" edge="1" parent="1" source="1C-hHUwmpPzY9lgkWQ61-7" target="1C-hHUwmpPzY9lgkWQ61-1">
          <mxGeometry width="50" height="50" relative="1" as="geometry">
            <mxPoint x="330" y="-900" as="sourcePoint" />
            <mxPoint x="380" y="-950" as="targetPoint" />
          </mxGeometry>
        </mxCell>
        <mxCell id="1C-hHUwmpPzY9lgkWQ61-28" value="" style="endArrow=classic;html=1;rounded=0;exitX=0.75;exitY=1;exitDx=0;exitDy=0;entryX=0.5;entryY=1;entryDx=0;entryDy=0;" edge="1" parent="1" source="1C-hHUwmpPzY9lgkWQ61-1" target="1C-hHUwmpPzY9lgkWQ61-7">
          <mxGeometry width="50" height="50" relative="1" as="geometry">
            <mxPoint x="330" y="-900" as="sourcePoint" />
            <mxPoint x="380" y="-950" as="targetPoint" />
            <Array as="points">
              <mxPoint x="170" y="-940" />
              <mxPoint x="380" y="-940" />
            </Array>
          </mxGeometry>
        </mxCell>
        <mxCell id="1C-hHUwmpPzY9lgkWQ61-29" value="PÁGINA LIVRE" style="rounded=0;whiteSpace=wrap;html=1;fillColor=#d5e8d4;strokeColor=#82b366;" vertex="1" parent="1">
          <mxGeometry x="90" y="-650" width="120" height="60" as="geometry" />
        </mxCell>
        <mxCell id="1C-hHUwmpPzY9lgkWQ61-30" value="PÁGINA AUTENTICADA" style="rounded=0;whiteSpace=wrap;html=1;fillColor=#f8cecc;strokeColor=#b85450;" vertex="1" parent="1">
          <mxGeometry x="260" y="-650" width="120" height="60" as="geometry" />
        </mxCell>
        <mxCell id="1C-hHUwmpPzY9lgkWQ61-31" value="" style="endArrow=classic;html=1;rounded=0;exitX=0.5;exitY=0;exitDx=0;exitDy=0;" edge="1" parent="1" source="1C-hHUwmpPzY9lgkWQ61-11">
          <mxGeometry width="50" height="50" relative="1" as="geometry">
            <mxPoint x="420" y="-760" as="sourcePoint" />
            <mxPoint x="680" y="-840" as="targetPoint" />
            <Array as="points">
              <mxPoint x="410" y="-840" />
            </Array>
          </mxGeometry>
        </mxCell>
      </root>
    </mxGraphModel>
  </diagram>
</mxfile>
